<svg width="50" height="50" viewBox="0 0 50 50" fill="none" xmlns="http://www.w3.org/2000/svg">
<path d="M25 25C25 23.3585 24.6767 21.733 24.0485 20.2165C23.4203 18.6999 22.4996 17.3219 21.3388 16.1612C20.1781 15.0004 18.8001 14.0797 17.2835 13.4515C15.767 12.8233 14.1415 12.5 12.5 12.5C10.8585 12.5 9.23303 12.8233 7.71646 13.4515C6.19989 14.0797 4.8219 15.0004 3.66116 16.1612C2.50043 17.3219 1.57969 18.6999 0.951505 20.2165C0.323322 21.733 -1.43506e-07 23.3585 0 25L12.5 25H25Z" fill="#2DB67C"/>
<path d="M25 50C21.6848 50 18.5054 48.683 16.1612 46.3388C13.817 43.9946 12.5 40.8152 12.5 37.5C12.5 34.1848 13.817 31.0054 16.1612 28.6612C18.5054 26.317 21.6848 25 25 25V37.5L25 50Z" fill="#0032E2"/>
<path d="M25 0C26.6415 1.9575e-08 28.267 0.323322 29.7835 0.951506C31.3001 1.57969 32.6781 2.50043 33.8388 3.66117C34.9996 4.8219 35.9203 6.19989 36.5485 7.71646C37.1767 9.23303 37.5 10.8585 37.5 12.5C37.5 14.1415 37.1767 15.767 36.5485 17.2835C35.9203 18.8001 34.9996 20.1781 33.8388 21.3388C32.6781 22.4996 31.3001 23.4203 29.7835 24.0485C28.267 24.6767 26.6415 25 25 25L25 12.5V0Z" fill="#E01E5A"/>
<path d="M25 25C25 28.3152 26.317 31.4946 28.6612 33.8388C31.0054 36.183 34.1848 37.5 37.5 37.5C40.8152 37.5 43.9946 36.183 46.3388 33.8388C48.683 31.4946 50 28.3152 50 25L37.5 25H25Z" fill="#EBB12F"/>
</svg>
