<svg width="30" height="30" viewBox="0 0 30 30" fill="none" xmlns="http://www.w3.org/2000/svg">
<path d="M15 30C6.7289 30 0 23.2711 0 15C0 6.7289 6.7289 0 15 0C23.2711 0 30 6.7289 30 15C30 23.2711 23.2711 30 15 30ZM15 2.14279C7.91061 2.14279 2.14279 7.91061 2.14279 15C2.14279 22.0894 7.91061 27.8572 15 27.8572C22.0894 27.8572 27.8572 22.0894 27.8572 15C27.8572 7.91061 22.0894 2.14279 15 2.14279Z" fill="#495464"/>
<path d="M20.358 21.4286C20.0838 21.4286 19.8096 21.324 19.6004 21.1146L8.88623 10.4004C8.46761 9.98177 8.46761 9.30382 8.88623 8.88542C9.30463 8.46703 9.98281 8.4668 10.4012 8.88542L21.1154 19.5996C21.534 20.0182 21.534 20.6962 21.1154 21.1146C20.9062 21.324 20.6322 21.4286 20.358 21.4286V21.4286Z" fill="#495464"/>
<path d="M9.6436 21.4286C9.3694 21.4286 9.09543 21.324 8.88623 21.1146C8.46761 20.6962 8.46761 20.018 8.88623 19.5996L19.6004 8.88542C20.019 8.4668 20.697 8.4668 21.1154 8.88542C21.5338 9.30382 21.534 9.98199 21.1154 10.4004L10.4012 21.1146C10.192 21.324 9.9178 21.4286 9.6436 21.4286V21.4286Z" fill="#495464"/>
</svg>
