<svg width="29" height="29" viewBox="0 0 29 29" fill="none" xmlns="http://www.w3.org/2000/svg">
<g clip-path="url(#clip0)">
<path d="M14.3125 0C7.4085 0 1.8125 5.596 1.8125 12.5C1.8125 17.223 4.4305 21.328 8.2925 23.455L8.1455 28.621L14.0435 24.986C14.1325 24.988 14.2215 25 14.3125 25C21.2165 25 26.8125 19.404 26.8125 12.5C26.8125 5.596 21.2165 0 14.3125 0ZM15.9045 19.784H12.7015V9.474H15.9045V19.784ZM14.2815 8.211C13.2685 8.211 12.5945 7.493 12.6165 6.607C12.5955 5.68 13.2685 4.983 14.3025 4.983C15.3355 4.983 15.9915 5.68 16.0125 6.607C16.0115 7.493 15.3335 8.211 14.2815 8.211Z" fill="#2DB67C"/>
</g>
<defs>
<clipPath id="clip0">
<rect width="28.621" height="28.621" fill="white"/>
</clipPath>
</defs>
</svg>
