<svg width="43" height="43" viewBox="0 0 43 43" fill="none" xmlns="http://www.w3.org/2000/svg">
<path d="M29.5482 21.9701C29.3543 22.164 29.0864 22.284 28.7904 22.2838L13.6382 22.2838C13.0462 22.2838 12.5668 21.8044 12.567 21.2126C12.567 20.6209 13.0464 20.1411 13.6382 20.1413H28.7904C29.3824 20.1413 29.8618 20.6207 29.8616 21.2126C29.8618 21.5086 29.742 21.7763 29.5482 21.9701Z" fill="#E01E5A"/>
<path d="M21.972 29.5464C21.7781 29.7403 21.5104 29.86 21.2144 29.8599C20.6225 29.86 20.143 29.3805 20.1431 28.7886V13.6365C20.1431 13.0445 20.6225 12.5651 21.2144 12.5652C21.8061 12.5652 22.2858 13.0446 22.2856 13.6365V28.7886C22.2858 29.0846 22.1659 29.3525 21.972 29.5464Z" fill="#E01E5A"/>
</svg>
