<svg width="30" height="30" viewBox="0 0 30 30" fill="none" xmlns="http://www.w3.org/2000/svg">
<path d="M13.523 20.7605L13.1287 24.306C13.1092 24.4824 13.1659 24.6594 13.2843 24.7919C13.4028 24.9243 13.5724 25 13.75 25H16.2501C16.4277 25 16.5974 24.9243 16.7158 24.7919C16.8342 24.6595 16.891 24.4825 16.8714 24.306L16.4771 20.7605C17.1174 20.2948 17.5001 19.5581 17.5001 18.75C17.5001 17.3712 16.3789 16.25 15 16.25C13.6212 16.25 12.5 17.3712 12.5 18.75C12.5 19.5581 12.8827 20.2948 13.523 20.7605ZM15 17.5C15.6891 17.5 16.25 18.0609 16.25 18.75C16.25 19.2291 15.9778 19.6582 15.5396 19.8706C15.3009 19.9866 15.1612 20.2393 15.1905 20.5023L15.5518 23.75H14.4483L14.8097 20.5023C14.839 20.2392 14.6992 19.9866 14.4606 19.8706C14.0223 19.6582 13.7501 19.2291 13.7501 18.75C13.75 18.0609 14.311 17.5 15 17.5Z" fill="white"/>
<path d="M25.625 11.25H23.75V8.74998C23.75 3.92519 19.8248 0 15 0C10.1752 0 6.25002 3.92519 6.25002 8.74998V11.25H4.37502C4.02955 11.25 3.75 11.5296 3.75 11.875V27.5C3.75 28.8788 4.87119 30 6.25002 30H23.75C25.1288 30 26.25 28.8788 26.25 27.5V11.875C26.25 11.5296 25.9704 11.25 25.625 11.25ZM7.5 8.74998C7.5 4.61426 10.8643 1.24998 15 1.24998C19.1357 1.24998 22.5 4.61426 22.5 8.74998V11.25H21.25V8.74998C21.25 5.30391 18.4461 2.49996 15 2.49996C11.5539 2.49996 8.74998 5.30396 8.74998 8.74998V11.25H7.5V8.74998ZM20 8.74998V11.25H10V8.74998C10 5.99303 12.243 3.75 15 3.75C17.757 3.75 20 5.99303 20 8.74998ZM25 27.5C25 28.189 24.4391 28.75 23.75 28.75H6.25002C5.56096 28.75 5.00004 28.189 5.00004 27.5V12.5H25V27.5V27.5Z" fill="white"/>
</svg>
