<svg width="30" height="30" viewBox="0 0 30 30" fill="none" xmlns="http://www.w3.org/2000/svg">
<path d="M21.9688 4.6875H7.90625C6.61188 4.6875 5.5625 5.73688 5.5625 7.03125V21.5625C5.5625 21.8214 5.77234 22.0312 6.03125 22.0312C6.28998 22.0312 6.5 21.8214 6.5 21.5625V7.03125C6.5 6.2547 7.12952 5.625 7.90625 5.625H21.9688C22.7453 5.625 23.375 6.2547 23.375 7.03125V26.7188C23.375 27.4953 22.7453 28.125 21.9688 28.125C21.192 28.125 20.5625 27.4953 20.5625 26.7188V24.375C20.5625 23.8572 20.1426 23.4375 19.625 23.4375H2.75C2.23218 23.4375 1.8125 23.8572 1.8125 24.375V26.7188C1.8125 28.0131 2.86188 29.0625 4.15625 29.0625H21.9688C23.2629 29.0625 24.3125 28.0131 24.3125 26.7188V7.03125C24.3125 5.73688 23.2629 4.6875 21.9688 4.6875ZM4.15625 28.125C3.37952 28.125 2.75 27.4953 2.75 26.7188V24.375H19.625V26.7188C19.625 27.226 19.7894 27.7192 20.0938 28.125H4.15625Z" fill="white"/>
<path d="M19.625 10.3125C19.8837 10.3125 20.0938 10.1027 20.0938 9.84375C20.0938 9.58484 19.8837 9.375 19.625 9.375H12.125C11.8661 9.375 11.6562 9.58484 11.6562 9.84375C11.6562 10.1027 11.8661 10.3125 12.125 10.3125H19.625Z" fill="white"/>
<path d="M9.3125 12.6562C9.3125 12.9152 9.52234 13.125 9.78125 13.125H19.625C19.8837 13.125 20.0938 12.9152 20.0938 12.6562C20.0938 12.3973 19.8837 12.1875 19.625 12.1875H9.78125C9.52234 12.1875 9.3125 12.3973 9.3125 12.6562V12.6562Z" fill="white"/>
<path d="M9.78125 15.9375H19.625C19.8837 15.9375 20.0938 15.7277 20.0938 15.4688C20.0938 15.2098 19.8837 15 19.625 15H9.78125C9.52234 15 9.3125 15.2098 9.3125 15.4688C9.3125 15.7277 9.52234 15.9375 9.78125 15.9375V15.9375Z" fill="white"/>
<path d="M9.78125 18.75H19.625C19.8837 18.75 20.0938 18.5402 20.0938 18.2812C20.0938 18.0223 19.8837 17.8125 19.625 17.8125H9.78125C9.52234 17.8125 9.3125 18.0223 9.3125 18.2812C9.3125 18.5402 9.52234 18.75 9.78125 18.75V18.75Z" fill="white"/>
<path d="M9.78125 21.5625H17.75C18.0087 21.5625 18.2188 21.3527 18.2188 21.0938C18.2188 20.8348 18.0087 20.625 17.75 20.625H9.78125C9.52234 20.625 9.3125 20.8348 9.3125 21.0938C9.3125 21.3527 9.52234 21.5625 9.78125 21.5625V21.5625Z" fill="white"/>
<path d="M25.7188 0.9375H11.6562C10.3619 0.9375 9.3125 1.98688 9.3125 3.28125C9.3125 3.54016 9.52234 3.75 9.78125 3.75C10.04 3.75 10.25 3.54016 10.25 3.28125C10.25 2.5047 10.8795 1.875 11.6562 1.875H25.7188C26.4953 1.875 27.125 2.5047 27.125 3.28125V22.9688C27.125 23.7453 26.4953 24.375 25.7188 24.375C25.4598 24.375 25.25 24.5848 25.25 24.8438C25.25 25.1027 25.4598 25.3125 25.7188 25.3125C27.0129 25.3125 28.0625 24.2631 28.0625 22.9688V3.28125C28.0625 1.98688 27.0129 0.9375 25.7188 0.9375V0.9375Z" fill="white"/>
</svg>
