<svg width="50" height="50" viewBox="0 0 50 50" fill="none" xmlns="http://www.w3.org/2000/svg">
<path d="M49.9999 35.3098C49.9999 32.384 49.1237 29.5589 47.4659 27.1399C46.2735 25.3999 44.738 23.955 42.9586 22.8813C45.0536 20.8973 46.3644 18.0932 46.3644 14.9868C46.3644 8.98872 41.4844 4.10876 35.4865 4.10876C31.9298 4.10876 28.5981 5.86777 26.5744 8.75528C26.0601 8.68038 25.5347 8.63998 24.9999 8.63998C24.4651 8.63998 23.9399 8.68051 23.4256 8.75528C21.4018 5.86777 18.0701 4.10876 14.5135 4.10876C8.51542 4.10876 3.63547 8.98872 3.63547 14.9868C3.63547 18.0932 4.94627 20.8973 7.0414 22.8813C5.26185 23.9549 3.72634 25.3999 2.53408 27.1397C0.876282 29.5589 0 32.384 0 35.3098V41.3604H10.4865V45.8915H39.5136V41.3604H50V35.3098H49.9999ZM35.4865 6.79358C40.0042 6.79358 43.6797 10.4691 43.6797 14.987C43.6797 19.5049 40.0042 23.1804 35.4865 23.1804C35.4055 23.1804 35.3246 23.1792 35.2435 23.1767C35.2497 23.1596 35.2548 23.142 35.2608 23.1248C35.4007 22.7283 35.5173 22.321 35.6109 21.905C35.6175 21.8755 35.625 21.8462 35.6313 21.8165C35.6556 21.7043 35.6769 21.591 35.6977 21.4775C35.7075 21.4238 35.7176 21.3702 35.7266 21.3164C35.7435 21.215 35.7588 21.1133 35.7729 21.0111C35.7827 20.9401 35.7916 20.8691 35.8 20.798C35.8106 20.7078 35.821 20.6174 35.8294 20.5266C35.838 20.4338 35.8445 20.3409 35.8506 20.2479C35.8555 20.1746 35.8615 20.1016 35.8649 20.0279C35.8722 19.8699 35.8764 19.7116 35.8769 19.5532C35.8769 19.5415 35.8779 19.5301 35.8779 19.5183C35.8779 19.512 35.8773 19.5057 35.8773 19.4994C35.8771 19.3376 35.8724 19.1768 35.8651 19.0166C35.863 18.97 35.8602 18.9235 35.8575 18.8771C35.8496 18.7408 35.8392 18.6053 35.8265 18.4704C35.8235 18.4397 35.8211 18.4091 35.818 18.3787C35.4124 14.4578 32.9353 11.1018 29.362 9.54955C30.9018 7.81967 33.129 6.79358 35.4865 6.79358ZM22.165 11.8303C22.1912 11.8208 22.2177 11.8118 22.2438 11.8024C22.3253 11.7733 22.4075 11.7456 22.49 11.7189C22.5526 11.6989 22.6155 11.6796 22.6789 11.6611C22.7249 11.6475 22.7711 11.6345 22.8174 11.6216C22.9001 11.5989 22.9832 11.5768 23.0671 11.5565C23.6873 11.4059 24.334 11.3241 24.9997 11.3241C25.6659 11.3247 26.3129 11.4065 26.9332 11.5572C27.0165 11.5773 27.0991 11.5993 27.1814 11.6219C27.2284 11.6349 27.2753 11.648 27.3219 11.6619C27.3845 11.6802 27.4468 11.6993 27.5086 11.719C27.5923 11.746 27.6754 11.7739 27.7578 11.8035C27.7831 11.8125 27.8085 11.8211 27.8338 11.8303C30.5739 12.8437 32.6283 15.2823 33.0933 18.2418C33.0969 18.2654 33.1004 18.2891 33.1039 18.3129C33.1188 18.4132 33.1313 18.5142 33.1424 18.6156C33.1465 18.6529 33.1508 18.6901 33.1544 18.7275C33.1633 18.82 33.1698 18.9132 33.1757 19.0066C33.1782 19.0466 33.1815 19.0865 33.1834 19.1266C33.189 19.246 33.1921 19.366 33.1925 19.4866C33.1925 19.4971 33.1932 19.5073 33.1932 19.5178C33.1932 19.5226 33.1929 19.5276 33.1929 19.5324C33.1927 19.6492 33.1892 19.7652 33.1841 19.8808C33.1825 19.9171 33.1808 19.9535 33.1787 19.9898C33.1724 20.1014 33.1641 20.2126 33.1533 20.3229C33.1492 20.3656 33.1435 20.4082 33.1387 20.4507C33.1305 20.5221 33.1214 20.5934 33.1114 20.6643C33.1037 20.7194 33.0959 20.7748 33.087 20.8297C33.0735 20.9133 33.0584 20.9964 33.0423 21.0792C33.028 21.1529 33.0122 21.2263 32.9959 21.2996C32.9861 21.3438 32.9759 21.3879 32.9653 21.4318C32.9391 21.5407 32.9104 21.6489 32.8798 21.7567C32.8675 21.7995 32.8561 21.8426 32.8432 21.885C32.8246 21.9468 32.8045 22.008 32.7844 22.0692C32.7683 22.1182 32.7518 22.1669 32.7348 22.2155C32.7155 22.2707 32.6964 22.326 32.676 22.3807C32.6412 22.4738 32.6047 22.566 32.5667 22.6574C32.5498 22.6982 32.5318 22.7386 32.5142 22.7793C32.4811 22.8554 32.447 22.9311 32.4115 23.006C32.4074 23.0149 32.4032 23.0237 32.3991 23.0326C32.3863 23.0592 32.3737 23.0859 32.3607 23.1124C32.3209 23.1935 32.2796 23.2737 32.2372 23.3531C32.2207 23.384 32.2047 23.4153 32.1878 23.446C32.1867 23.448 32.1856 23.4499 32.1846 23.4518C32.1381 23.5364 32.0897 23.6196 32.0404 23.7023C32.0208 23.735 32.0015 23.7679 31.9815 23.8003C31.9278 23.8874 31.8726 23.9736 31.8158 24.0584C31.7805 24.1111 31.7436 24.1628 31.7071 24.2148C31.6761 24.2588 31.6452 24.303 31.6134 24.3463C31.5722 24.4024 31.5302 24.4579 31.4875 24.513C31.4585 24.5505 31.4292 24.5877 31.3997 24.6247C31.3546 24.6811 31.3091 24.7372 31.2626 24.7924C31.2338 24.8266 31.2041 24.8602 31.1747 24.8939C31.1264 24.9493 31.0782 25.0049 31.0285 25.059C30.999 25.0911 30.9684 25.1219 30.9383 25.1536C30.8575 25.2388 30.7748 25.3222 30.6905 25.404C30.6405 25.4524 30.5907 25.501 30.5394 25.5481C30.5039 25.5807 30.4676 25.6124 30.4315 25.6445C30.3727 25.6967 30.3135 25.7484 30.2532 25.7989C30.2226 25.8245 30.1917 25.8499 30.1607 25.8751C30.0878 25.9345 30.014 25.9926 29.9389 26.0495C29.9185 26.0649 29.8984 26.0806 29.8779 26.0959C28.5141 27.1098 26.8259 27.7108 24.9998 27.7108C23.1735 27.7108 21.4851 27.1097 20.1213 26.0955C20.1012 26.0805 20.0815 26.0651 20.0615 26.0499C19.9861 25.9928 19.9119 25.9343 19.8388 25.8747C19.808 25.8496 19.7773 25.8245 19.7469 25.799C19.6864 25.7483 19.6271 25.6963 19.568 25.644C19.5322 25.612 19.4959 25.5806 19.4606 25.5481C19.4092 25.5009 19.3593 25.4521 19.3091 25.4037C19.2244 25.3217 19.1415 25.238 19.0605 25.1525C19.0308 25.1213 19.0005 25.0908 18.9713 25.0591C18.9215 25.0049 18.8733 24.9492 18.825 24.8937C18.7956 24.86 18.7661 24.8266 18.7372 24.7924C18.6907 24.7372 18.6453 24.6811 18.6002 24.6249C18.5706 24.5878 18.5412 24.5506 18.5123 24.513C18.4697 24.458 18.4277 24.4026 18.3865 24.3465C18.3547 24.303 18.3237 24.2587 18.2926 24.2145C18.2561 24.1627 18.2194 24.1111 18.1842 24.0585C18.1271 23.9733 18.0717 23.8868 18.0179 23.7995C17.9981 23.7674 17.9791 23.735 17.9597 23.7027C17.9097 23.6188 17.8607 23.5345 17.8136 23.4487C17.7962 23.4172 17.7799 23.3851 17.7628 23.3534C17.7204 23.2737 17.6789 23.1933 17.6391 23.112C17.6248 23.0832 17.611 23.0541 17.5972 23.0251C17.595 23.0206 17.593 23.0162 17.591 23.0118C17.5538 22.9334 17.5182 22.8542 17.4835 22.7743C17.467 22.7363 17.4502 22.6985 17.4344 22.6603C17.3954 22.5669 17.3582 22.4727 17.3227 22.3776C17.3035 22.3264 17.2858 22.2746 17.2676 22.2229C17.249 22.1699 17.231 22.1164 17.2134 22.0629C17.1945 22.0049 17.1754 21.9469 17.1577 21.8886C17.1313 21.8015 17.1063 21.7139 17.0828 21.6257C17.0663 21.5638 17.0514 21.5014 17.0362 21.4391C17.0244 21.3901 17.013 21.3411 17.0021 21.2918C16.9887 21.2314 16.9751 21.1711 16.9631 21.1105C16.9444 21.016 16.9273 20.9209 16.912 20.8254C16.9037 20.7738 16.8965 20.7221 16.8891 20.6706C16.8782 20.5942 16.8684 20.5174 16.8597 20.4404C16.8554 20.4024 16.8504 20.3644 16.8465 20.3264C16.8354 20.2133 16.8269 20.0993 16.8205 19.9849C16.8186 19.952 16.8171 19.9191 16.8157 19.8863C16.8102 19.764 16.8063 19.6413 16.8063 19.5178C16.8063 19.3854 16.81 19.254 16.8163 19.1231C16.8181 19.0876 16.821 19.0523 16.823 19.0168C16.829 18.9186 16.8361 18.8206 16.8455 18.7231C16.8487 18.6892 16.8526 18.6553 16.8562 18.6215C16.8677 18.516 16.8808 18.411 16.8963 18.3067C16.8993 18.2865 16.9022 18.266 16.9055 18.2458C17.369 15.2846 19.4238 12.8443 22.165 11.8303ZM6.32015 14.987C6.32015 10.4692 9.99562 6.79358 14.5135 6.79358C16.8711 6.79358 19.0982 7.8198 20.638 9.54928C17.0635 11.1021 14.5859 14.4597 14.1815 18.3822C14.1786 18.4087 14.1766 18.4355 14.1741 18.4622C14.1606 18.6019 14.15 18.7422 14.142 18.8833C14.1396 18.9262 14.1369 18.969 14.1349 19.0121C14.1272 19.18 14.122 19.3485 14.122 19.5182C14.122 19.6895 14.127 19.8603 14.135 20.0311C14.1382 20.0998 14.1439 20.1679 14.1483 20.2362C14.1549 20.3345 14.1616 20.4327 14.1707 20.5307C14.1788 20.6178 14.1887 20.7044 14.1989 20.791C14.2078 20.8664 14.2172 20.9416 14.2276 21.0168C14.2413 21.1154 14.2561 21.2137 14.2723 21.3116C14.2821 21.3697 14.2929 21.4277 14.3035 21.4857C14.3236 21.5952 14.3441 21.7045 14.3675 21.8128C14.3753 21.8485 14.3841 21.8839 14.3922 21.9195C14.4833 22.3226 14.5965 22.7173 14.7313 23.1021C14.7399 23.1269 14.7474 23.152 14.7561 23.1767C14.6752 23.1792 14.5941 23.1804 14.5133 23.1804C9.99562 23.1802 6.32015 19.5048 6.32015 14.987ZM12.7372 32.102C12.7077 32.1486 12.6795 32.1959 12.6505 32.2428C12.5892 32.3419 12.5284 32.4412 12.4696 32.5415C12.4367 32.5974 12.405 32.6538 12.373 32.7102C12.3202 32.8032 12.2679 32.8965 12.2172 32.9906C12.1853 33.0498 12.1538 33.1093 12.1227 33.1687C12.0738 33.2623 12.0262 33.3564 11.9795 33.4508C11.9501 33.5101 11.9208 33.5693 11.8924 33.6289C11.8448 33.7284 11.7991 33.8286 11.7538 33.929C11.7293 33.9837 11.704 34.0379 11.6803 34.0928C11.6279 34.2131 11.578 34.3343 11.529 34.4559C11.5146 34.4915 11.4993 34.5267 11.4854 34.5622C11.4232 34.7202 11.3637 34.8793 11.3074 35.0392C11.2945 35.0758 11.2829 35.1129 11.2702 35.1495C11.2278 35.2727 11.1864 35.3964 11.1474 35.5205C11.1295 35.5776 11.113 35.6349 11.0958 35.6921C11.0643 35.7973 11.0333 35.9027 11.0041 36.0087C10.9868 36.0718 10.9703 36.135 10.9538 36.1984C10.9272 36.3002 10.9017 36.4022 10.8775 36.5046C10.8621 36.5694 10.8471 36.6343 10.8327 36.6992C10.8096 36.803 10.788 36.9072 10.7672 37.0115C10.7547 37.0741 10.7418 37.1368 10.7302 37.1998C10.7091 37.3134 10.6902 37.4275 10.6718 37.5417C10.6632 37.5954 10.6536 37.6488 10.6456 37.7025C10.6206 37.8703 10.5979 38.0385 10.5789 38.2075C10.5786 38.2095 10.5785 38.2115 10.5783 38.2135C10.561 38.3672 10.5461 38.5212 10.5336 38.6757H2.68469V35.3098C2.68469 30.7112 5.3283 26.5828 9.46996 24.6206C10.9788 25.4136 12.6939 25.8651 14.5134 25.8651C15.0396 25.8651 15.5674 25.8261 16.0912 25.7491C16.1728 25.8655 16.2558 25.9806 16.3417 26.0937C16.3707 26.1316 16.4007 26.1687 16.4303 26.2063C16.5151 26.3147 16.6012 26.422 16.69 26.5271C16.7264 26.5702 16.7637 26.6123 16.8008 26.6549C16.884 26.7505 16.9686 26.8448 17.055 26.9373C17.1004 26.986 17.1466 27.034 17.1927 27.0819C17.2718 27.1634 17.3519 27.2436 17.4334 27.3227C17.464 27.3524 17.4929 27.3838 17.5238 27.4132C17.4071 27.4836 17.2915 27.5559 17.177 27.6296C17.1584 27.6415 17.1401 27.6541 17.1216 27.6662C17.0071 27.7406 16.8938 27.8165 16.7816 27.894C16.7428 27.9208 16.7041 27.948 16.6655 27.9751C16.5655 28.0456 16.4665 28.1172 16.3684 28.1901C16.3374 28.2132 16.306 28.2358 16.2752 28.2591C16.1504 28.3535 16.027 28.4496 15.9053 28.5479C15.8787 28.5693 15.8527 28.5915 15.8261 28.6132C15.7292 28.6926 15.6332 28.7732 15.5384 28.8551C15.5016 28.8868 15.4651 28.9187 15.4286 28.9508C15.3337 29.0345 15.24 29.1193 15.1473 29.2053C15.1231 29.2278 15.0984 29.2498 15.0744 29.2725C14.9605 29.3796 14.8485 29.4887 14.738 29.5997C14.7093 29.6286 14.6812 29.658 14.6527 29.687C14.5682 29.7733 14.4846 29.8605 14.402 29.949C14.3692 29.9842 14.3365 30.0193 14.304 30.0549C14.2111 30.1564 14.1196 30.2592 14.0295 30.3635C14.0154 30.3799 14.0008 30.3957 13.9867 30.4122C13.884 30.5321 13.7836 30.6543 13.6845 30.7776C13.6569 30.812 13.6299 30.8469 13.6026 30.8817C13.5281 30.9763 13.4547 31.0719 13.3825 31.1684C13.3546 31.2057 13.3265 31.2427 13.299 31.2803C13.2045 31.4092 13.1112 31.5391 13.0206 31.6714C12.9233 31.8134 12.829 31.9571 12.7372 32.102ZM13.1712 43.2069V41.3605V39.841C13.1712 39.692 13.174 39.5435 13.1795 39.3955C13.1813 39.3467 13.1852 39.2984 13.1876 39.2498C13.1924 39.151 13.197 39.0521 13.2042 38.9537C13.2087 38.894 13.2154 38.8348 13.2207 38.7752C13.2285 38.6884 13.2355 38.6016 13.2452 38.5154C13.2523 38.4523 13.2615 38.3896 13.2696 38.3267C13.2801 38.2447 13.2899 38.1625 13.3019 38.0809C13.3117 38.0159 13.3236 37.9515 13.3343 37.8868C13.3475 37.8081 13.3597 37.7292 13.3744 37.651C13.3869 37.5848 13.4014 37.5193 13.415 37.4534C13.4305 37.3774 13.4454 37.3011 13.4625 37.2257C13.4775 37.1591 13.4947 37.0932 13.5108 37.0269C13.5289 36.9531 13.5463 36.8788 13.5657 36.8054C13.5834 36.7387 13.603 36.6727 13.6218 36.6065C13.6422 36.5344 13.6621 36.4622 13.6838 36.3906C13.7041 36.324 13.7264 36.258 13.7477 36.1918C13.7706 36.1216 13.7927 36.0513 13.8167 35.9816C13.8396 35.9157 13.8641 35.8503 13.888 35.785C13.9133 35.716 13.938 35.6467 13.9644 35.5782C13.9896 35.5131 14.0165 35.4488 14.0427 35.3841C14.0702 35.3166 14.0973 35.2487 14.126 35.1817C14.1538 35.1171 14.1831 35.0533 14.2119 34.9894C14.2416 34.9234 14.271 34.8573 14.3019 34.792C14.3321 34.7283 14.3637 34.6653 14.395 34.6021C14.427 34.5377 14.4585 34.4731 14.4915 34.4093C14.5242 34.3465 14.5581 34.2845 14.5918 34.2223C14.6259 34.1594 14.6596 34.0964 14.6948 34.0341C14.7297 33.9724 14.7659 33.9116 14.8017 33.8505C14.838 33.789 14.874 33.7274 14.9114 33.6665C14.9486 33.6059 14.987 33.5463 15.0252 33.4865C15.0636 33.4265 15.1018 33.3665 15.1412 33.3071C15.1807 33.2478 15.2212 33.1893 15.2618 33.1307C15.3022 33.0724 15.3424 33.014 15.3838 32.9562C15.4254 32.8983 15.4682 32.8411 15.511 32.7838C15.5535 32.727 15.5957 32.6702 15.6391 32.6142C15.6829 32.5577 15.7277 32.502 15.7725 32.4462C15.817 32.3909 15.8615 32.3357 15.9069 32.2812C15.9527 32.2264 15.9994 32.1723 16.0461 32.1184C16.0927 32.0645 16.1394 32.0107 16.187 31.9575C16.2347 31.9044 16.2834 31.852 16.332 31.7997C16.3806 31.7475 16.4292 31.6955 16.4787 31.6442C16.5284 31.5927 16.579 31.542 16.6298 31.4913C16.6804 31.4407 16.7312 31.3904 16.7828 31.3406C16.8342 31.2911 16.8864 31.2422 16.9389 31.1935C16.9915 31.1446 17.0444 31.0959 17.098 31.0478C17.1514 31 17.2053 30.9529 17.2597 30.9061C17.3142 30.859 17.3691 30.8121 17.4246 30.7659C17.4797 30.72 17.5354 30.6748 17.5915 30.6298C17.6481 30.5845 17.705 30.5395 17.7624 30.4951C17.8192 30.4513 17.8765 30.4081 17.9341 30.3651C17.9926 30.3215 18.0516 30.2784 18.1112 30.2359C18.1694 30.1941 18.2282 30.153 18.2874 30.1122C18.3481 30.0705 18.409 30.0293 18.4705 29.9886C18.5302 29.9491 18.5905 29.9101 18.6511 29.8715C18.7137 29.8317 18.7768 29.7923 18.8403 29.7537C18.9015 29.7164 18.9631 29.6795 19.0252 29.6432C19.0896 29.6055 19.1546 29.5683 19.2199 29.5317C19.2826 29.4965 19.3457 29.4617 19.4092 29.4276C19.4757 29.3919 19.5426 29.3569 19.61 29.3223C19.6739 29.2894 19.7381 29.257 19.8028 29.2252C19.8537 29.2002 19.9051 29.1761 19.9565 29.1518C21.4651 29.9448 23.1805 30.3961 24.9999 30.3961C26.8195 30.3961 28.5347 29.9448 30.0434 29.1518C30.0944 29.1759 30.1454 29.2 30.1959 29.2247C30.2614 29.2569 30.3262 29.2896 30.3909 29.3228C30.4575 29.357 30.5238 29.3917 30.5896 29.427C30.6537 29.4615 30.7175 29.4966 30.7809 29.5322C30.8454 29.5684 30.9096 29.6051 30.9732 29.6424C31.0362 29.6792 31.0986 29.7166 31.1606 29.7545C31.2233 29.7927 31.2855 29.8314 31.3472 29.8707C31.4087 29.9098 31.4696 29.9493 31.5302 29.9894C31.591 30.0295 31.6512 30.0703 31.7111 30.1116C31.7708 30.1528 31.8303 30.1942 31.8892 30.2364C31.9482 30.2785 32.0064 30.3212 32.0644 30.3644C32.1227 30.4077 32.1805 30.4513 32.2378 30.4956C32.2948 30.5396 32.3511 30.5842 32.4072 30.6292C32.4636 30.6744 32.5197 30.7199 32.5753 30.7661C32.6305 30.812 32.685 30.8586 32.7392 30.9054C32.7938 30.9525 32.8482 30.9999 32.9019 31.0481C32.9551 31.0958 33.0075 31.1441 33.0598 31.1925C33.1127 31.2417 33.1654 31.2911 33.2174 31.3411C33.2685 31.3904 33.3188 31.4403 33.3689 31.4904C33.4199 31.5414 33.4709 31.5926 33.521 31.6444C33.5701 31.6954 33.6186 31.7469 33.6668 31.7987C33.7159 31.8515 33.7649 31.9044 33.813 31.9579C33.8602 32.0106 33.9065 32.0639 33.9527 32.1173C33.9998 32.1716 34.0469 32.2261 34.093 32.2814C34.1382 32.3355 34.1824 32.3904 34.2265 32.4453C34.2716 32.5015 34.3167 32.5574 34.3608 32.6143C34.404 32.6701 34.446 32.7266 34.4881 32.7831C34.5311 32.8405 34.5741 32.8981 34.6159 32.9564C34.6572 33.0137 34.6973 33.072 34.7374 33.1301C34.7781 33.1889 34.8189 33.2477 34.8585 33.3073C34.8977 33.3662 34.9356 33.4258 34.9737 33.4854C35.0122 33.5457 35.0509 33.6058 35.0883 33.6667C35.1254 33.727 35.1611 33.7882 35.197 33.8492C35.2333 33.9107 35.2698 33.972 35.3048 34.0341C35.3399 34.0962 35.3734 34.159 35.4074 34.2215C35.4412 34.284 35.4753 34.3462 35.5079 34.4092C35.541 34.4728 35.5724 34.5374 35.6043 34.6017C35.6356 34.6649 35.6674 34.728 35.6976 34.7919C35.7285 34.8571 35.7577 34.923 35.7873 34.9888C35.8163 35.0531 35.8457 35.117 35.8734 35.1819C35.902 35.2483 35.9288 35.3155 35.9561 35.3827C35.9827 35.4479 36.0098 35.5129 36.0352 35.5786C36.0615 35.6467 36.0861 35.7156 36.1112 35.7843C36.1352 35.8499 36.1598 35.9153 36.1826 35.9815C36.2068 36.0514 36.229 36.1222 36.2519 36.1926C36.2732 36.2585 36.2953 36.3242 36.3155 36.3906C36.3374 36.4622 36.3571 36.5345 36.3776 36.6066C36.3964 36.6728 36.416 36.7387 36.4337 36.8054C36.4532 36.8788 36.4705 36.9529 36.4886 37.0269C36.5049 37.0931 36.5219 37.1591 36.537 37.2257C36.554 37.3011 36.5688 37.3773 36.5845 37.4531C36.598 37.519 36.6125 37.5846 36.625 37.651C36.6397 37.7285 36.6517 37.8068 36.6649 37.8849C36.6758 37.9503 36.6878 38.0153 36.6976 38.081C36.7097 38.162 36.7194 38.2436 36.7299 38.3249C36.7381 38.3884 36.7474 38.4515 36.7546 38.5153C36.7642 38.6015 36.7712 38.6883 36.779 38.775C36.7844 38.8346 36.7911 38.8938 36.7955 38.9536C36.8029 39.052 36.8073 39.151 36.8121 39.25C36.8146 39.2984 36.8185 39.3467 36.8202 39.3953C36.8257 39.5434 36.8285 39.6918 36.8285 39.8409V41.3602V43.2069H13.1712ZM39.4669 38.6757C39.4406 38.3487 39.4027 38.0237 39.3547 37.7008C39.347 37.6496 39.3379 37.5989 39.3297 37.5479C39.3111 37.4309 39.2916 37.3143 39.27 37.198C39.2586 37.1368 39.2461 37.0759 39.2339 37.0148C39.2128 36.9086 39.1908 36.8027 39.1673 36.6972C39.1531 36.6336 39.1383 36.57 39.1233 36.5066C39.0987 36.403 39.0729 36.2998 39.0461 36.1968C39.0298 36.1344 39.0136 36.0721 38.9964 36.0098C38.967 35.9027 38.9356 35.7961 38.9037 35.6897C38.8867 35.6335 38.8706 35.5773 38.853 35.5213C38.8134 35.3953 38.7716 35.2699 38.7285 35.1448C38.7164 35.1099 38.7054 35.0746 38.693 35.0397C38.6364 34.8793 38.5769 34.7198 38.5145 34.5613C38.5011 34.5273 38.4865 34.4938 38.4728 34.4598C38.4232 34.3367 38.3725 34.2139 38.3195 34.092C38.296 34.0379 38.2711 33.9845 38.247 33.9307C38.2013 33.8292 38.1552 33.7281 38.1071 33.6277C38.0791 33.5689 38.0501 33.5105 38.0212 33.4521C37.9741 33.3568 37.9259 33.2619 37.8766 33.1675C37.8458 33.1085 37.8147 33.0497 37.7831 32.991C37.7321 32.8966 37.6797 32.8029 37.6265 32.7095C37.5946 32.6534 37.5631 32.5973 37.5304 32.5416C37.4714 32.4408 37.4103 32.341 37.3485 32.2414C37.3198 32.195 37.2919 32.1482 37.2626 32.1021C37.1707 31.9573 37.0765 31.8135 36.979 31.6714C36.8883 31.539 36.795 31.4091 36.7005 31.2802C36.6731 31.2429 36.6452 31.206 36.6175 31.1689C36.5449 31.0719 36.4712 30.976 36.3964 30.881C36.3694 30.8468 36.3427 30.8121 36.3153 30.7782C36.2161 30.6544 36.1153 30.532 36.0124 30.4118C35.999 30.3963 35.9851 30.3811 35.9717 30.3655C35.881 30.2604 35.7886 30.1568 35.695 30.0545C35.6628 30.0193 35.6305 29.9846 35.598 29.9497C35.515 29.8607 35.4309 29.7727 35.3458 29.686C35.3177 29.6574 35.2902 29.6286 35.2619 29.6003C35.1511 29.4891 35.0386 29.3796 34.9245 29.2722C34.9011 29.25 34.8769 29.2286 34.8533 29.2065C34.76 29.12 34.6657 29.0347 34.5704 28.9507C34.5342 28.9187 34.4977 28.8871 34.4612 28.8554C34.3661 28.7734 34.2702 28.6927 34.1731 28.6132C34.1467 28.5916 34.1208 28.5695 34.0942 28.548C33.9726 28.4497 33.8492 28.3536 33.7245 28.2594C33.6933 28.2359 33.6617 28.2131 33.6304 28.1899C33.5327 28.1174 33.4343 28.046 33.3347 27.9759C33.2956 27.9484 33.2565 27.921 33.2174 27.8939C33.1062 27.8172 32.9941 27.742 32.8808 27.6685C32.861 27.6556 32.8415 27.6422 32.8216 27.6294C32.7073 27.556 32.5921 27.4839 32.4756 27.4136C32.5056 27.385 32.5338 27.3545 32.5635 27.3255C32.6467 27.245 32.7285 27.1631 32.809 27.0799C32.854 27.0334 32.8987 26.9868 32.9427 26.9396C33.0306 26.8456 33.1163 26.7498 33.2008 26.6527C33.2368 26.6115 33.2729 26.5706 33.3082 26.5287C33.3983 26.4221 33.4858 26.3133 33.5719 26.2031C33.6001 26.1671 33.6289 26.1316 33.6566 26.0953C33.7429 25.9818 33.8262 25.8661 33.9083 25.7493C34.432 25.8263 34.9599 25.8652 35.486 25.8652C37.3056 25.8652 39.0208 25.4139 40.5295 24.6207C44.6713 26.5829 47.3148 30.7113 47.3148 35.3099V38.6757H39.4669Z" fill="#495464"/>
</svg>
