<svg width="43" height="43" viewBox="0 0 43 43" fill="none" xmlns="http://www.w3.org/2000/svg">
<path d="M29.5462 21.9701C29.3523 22.164 29.0845 22.284 28.7884 22.2838L13.6363 22.2838C13.0443 22.2838 12.5649 21.8044 12.5651 21.2126C12.5651 20.6209 13.0444 20.1411 13.6363 20.1413H28.7884C29.3805 20.1413 29.8599 20.6207 29.8597 21.2126C29.8599 21.5086 29.7401 21.7763 29.5462 21.9701Z" fill="#F6AF0D"/>
<path d="M21.97 29.5464C21.7761 29.7403 21.5084 29.86 21.2124 29.8599C20.6206 29.86 20.141 29.3805 20.1412 28.7886V13.6365C20.1412 13.0445 20.6206 12.5651 21.2124 12.5652C21.8041 12.5652 22.2838 13.0446 22.2837 13.6365V28.7886C22.2838 29.0846 22.1639 29.3525 21.97 29.5464Z" fill="#F6AF0D"/>
</svg>
